<svg xmlns="http://www.w3.org/2000/svg" version="1.1" style="font-family:&#x27;Helvetica Neue&#x27;, Helvetica, Arial, sans-serif;font-size:18px;background-color:white;text-rendering:optimizeLegibility;-webkit-font-smoothing:antialiased" width="850" height="600"><g class="ChartTab"><g class="HeaderView"><g opacity="0.8" transform="translate(778, 15) scale(0.27)"><a xmlns:xlink="http://www.w3.org/1999/xlink" xlink:href="https://ourworldindata.org" target="_blank"><g><rect x="0" y="0" fill="#1B2543" width="211.2" height="130.1"/><rect x="0" y="112.2" fill="#E63912" width="211.2" height="17.9"/><g><rect x="1.2" y="12.3" fill="none" width="210.2" height="99.2"/><path fill="#FFFFFF" d="M37.8,32.2c0,12.7-7.7,19.4-17.1,19.4c-9.7,0-16.6-7.5-16.6-18.7c0-11.7,7.3-19.3,17.1-19.3 C31.3,13.7,37.8,21.3,37.8,32.2z M9.2,32.8c0,7.9,4.3,14.9,11.8,14.9c7.5,0,11.8-6.9,11.8-15.3c0-7.3-3.8-14.9-11.8-14.9 C13.1,17.5,9.2,24.8,9.2,32.8z"/><path fill="#FFFFFF" d="M62.7,43.8c0,2.7,0.1,5.1,0.2,7.2h-4.3l-0.3-4.3h-0.1c-1.3,2.1-4,4.9-8.8,4.9c-4.2,0-9.1-2.3-9.1-11.6 V24.6h4.8v14.6c0,5,1.5,8.4,5.9,8.4c3.2,0,5.5-2.2,6.3-4.4c0.3-0.7,0.4-1.6,0.4-2.5V24.6h4.8V43.8z"/><path fill="#FFFFFF" d="M67.3,32.8c0-3.1-0.1-5.8-0.2-8.2h4.2l0.2,5.2h0.2c1.2-3.5,4.1-5.8,7.3-5.8c0.5,0,0.9,0.1,1.4,0.2v4.5 c-0.5-0.1-1-0.2-1.6-0.2c-3.4,0-5.8,2.6-6.5,6.2c-0.1,0.7-0.2,1.4-0.2,2.2V51h-4.8V32.8z"/><path fill="#FFFFFF" d="M95.4,51l-9.4-36.8h5l4.4,18.6c1.1,4.6,2.1,9.2,2.7,12.7h0.1c0.6-3.7,1.8-8,3-12.8l4.9-18.5h5l4.5,18.7 c1,4.4,2,8.7,2.6,12.6h0.1c0.8-4,1.8-8.1,3-12.7l4.9-18.5h4.9L120.6,51h-5L111,31.9c-1.1-4.7-1.9-8.3-2.4-12h-0.1 c-0.7,3.7-1.5,7.3-2.8,12L100.4,51H95.4z"/><path fill="#FFFFFF" d="M154.9,37.6c0,9.8-6.8,14-13.2,14c-7.2,0-12.7-5.2-12.7-13.6c0-8.8,5.8-14,13.1-14 C149.8,24,154.9,29.5,154.9,37.6z M133.9,37.9c0,5.8,3.3,10.1,8,10.1c4.6,0,8-4.3,8-10.3c0-4.5-2.2-10.1-7.9-10.1 C136.3,27.6,133.9,32.8,133.9,37.9z"/><path fill="#FFFFFF" d="M158.2,32.8c0-3.1-0.1-5.8-0.2-8.2h4.2l0.2,5.2h0.2c1.2-3.5,4.1-5.8,7.3-5.8c0.5,0,0.9,0.1,1.4,0.2v4.5 c-0.5-0.1-1-0.2-1.6-0.2c-3.4,0-5.8,2.6-6.5,6.2c-0.1,0.7-0.2,1.4-0.2,2.2V51h-4.8V32.8z"/><path fill="#FFFFFF" d="M173.5,12.3h4.8V51h-4.8V12.3z"/><path fill="#FFFFFF" d="M206.5,12.3v31.9c0,2.3,0.1,5,0.2,6.8h-4.3l-0.2-4.6H202c-1.5,2.9-4.7,5.2-9,5.2 c-6.4,0-11.3-5.4-11.3-13.4c-0.1-8.8,5.4-14.2,11.9-14.2c4,0,6.8,1.9,8,4h0.1V12.3H206.5z M201.7,35.4c0-0.6-0.1-1.4-0.2-2 c-0.7-3.1-3.3-5.6-6.9-5.6c-5,0-7.9,4.4-7.9,10.2c0,5.3,2.6,9.8,7.8,9.8c3.2,0,6.2-2.1,7.1-5.7c0.2-0.7,0.2-1.3,0.2-2.1V35.4z"/><path fill="#FFFFFF" d="M42.8,64c0.1,1.6-1.1,2.9-3.1,2.9c-1.7,0-2.9-1.3-2.9-2.9c0-1.7,1.3-3,3-3C41.7,61,42.8,62.3,42.8,64z M37.4,97.8V71.4h4.8v26.4H37.4z"/><path fill="#FFFFFF" d="M47.5,78.6c0-2.7-0.1-5-0.2-7.1h4.3l0.3,4.4h0.1c1.3-2.5,4.4-5,8.8-5c3.7,0,9.4,2.2,9.4,11.2v15.8h-4.8 V82.6c0-4.3-1.6-7.8-6.1-7.8c-3.2,0-5.6,2.2-6.5,4.9c-0.2,0.6-0.3,1.4-0.3,2.2v15.9h-4.8V78.6z"/><path fill="#FFFFFF" d="M84,61.6c2.9-0.4,6.3-0.8,10.1-0.8c6.8,0,11.7,1.6,14.9,4.6c3.3,3,5.2,7.3,5.2,13.2c0,6-1.9,10.9-5.3,14.3 c-3.4,3.4-9.1,5.3-16.3,5.3c-3.4,0-6.2-0.2-8.6-0.4V61.6z M88.8,94.1c1.2,0.2,3,0.3,4.8,0.3c10.2,0,15.7-5.7,15.7-15.6 c0.1-8.7-4.9-14.2-14.9-14.2c-2.5,0-4.3,0.2-5.6,0.5V94.1z"/><path fill="#FFFFFF" d="M132.1,97.8l-0.4-3.3h-0.2c-1.5,2.1-4.3,3.9-8.1,3.9c-5.4,0-8.1-3.8-8.1-7.6c0-6.4,5.7-9.9,15.9-9.8v-0.5 c0-2.2-0.6-6.1-6-6.1c-2.5,0-5,0.8-6.9,2l-1.1-3.2c2.2-1.4,5.4-2.3,8.7-2.3c8.1,0,10.1,5.5,10.1,10.8v9.9c0,2.3,0.1,4.5,0.4,6.3 H132.1z M131.4,84.4c-5.3-0.1-11.2,0.8-11.2,5.9c0,3.1,2.1,4.6,4.5,4.6c3.4,0,5.6-2.2,6.4-4.4c0.2-0.5,0.3-1,0.3-1.5V84.4z"/><path fill="#FFFFFF" d="M146.6,63.9v7.6h6.9v3.7h-6.9v14.2c0,3.3,0.9,5.1,3.6,5.1c1.3,0,2.2-0.2,2.8-0.3l0.2,3.6 c-0.9,0.4-2.4,0.7-4.3,0.7c-2.2,0-4-0.7-5.2-2c-1.4-1.4-1.9-3.8-1.9-6.9V75.1h-4.1v-3.7h4.1v-6.3L146.6,63.9z"/><path fill="#FFFFFF" d="M171.4,97.8l-0.4-3.3h-0.2c-1.5,2.1-4.3,3.9-8.1,3.9c-5.4,0-8.1-3.8-8.1-7.6c0-6.4,5.7-9.9,15.9-9.8v-0.5 c0-2.2-0.6-6.1-6-6.1c-2.5,0-5,0.8-6.9,2l-1.1-3.2c2.2-1.4,5.4-2.3,8.7-2.3c8.1,0,10.1,5.5,10.1,10.8v9.9c0,2.3,0.1,4.5,0.4,6.3 H171.4z M170.7,84.4c-5.3-0.1-11.2,0.8-11.2,5.9c0,3.1,2.1,4.6,4.5,4.6c3.4,0,5.6-2.2,6.4-4.4c0.2-0.5,0.3-1,0.3-1.5V84.4z"/></g></g></a></g><a href="https://ourworldindata.org/grapher/world-gdp-over-the-last-two-millennia" target="_blank"><text font-size="25.20" x="15.0" y="35.2" fill="#555"><tspan x="15" y="35.160000000000004">World GDP over the last two millennia</tspan></text></a><text font-size="14.40" x="15.0" y="53.7" fill="#666"><tspan x="15" y="53.72">Total output of the world economy; adjusted for inflation and expressed in 2011 international dollars.</tspan></text></g><g class="LineChart"><defs><clipPath id="boundsClip-2"><rect x="93.10600000000001" y="0" width="830" height="959.8"></rect></clipPath></defs><g class="AxisBoxView"><g class="HorizontalAxis"><text x="103.1" y="556.5" fill="#666" text-anchor="middle" font-size="16.2">1</text><text x="279.5" y="556.5" fill="#666" text-anchor="middle" font-size="16.2">500</text><text x="456.2" y="556.5" fill="#666" text-anchor="middle" font-size="16.2">1000</text><text x="633" y="556.5" fill="#666" text-anchor="middle" font-size="16.2">1500</text><text x="815" y="556.5" fill="#666" text-anchor="middle" font-size="16.2">2015</text></g><g class="VerticalAxis"><text x="98.11" y="535.3" fill="#666" dominant-baseline="middle" text-anchor="end" font-size="16.2">$0</text><text x="98.11" y="450.4" fill="#666" dominant-baseline="middle" text-anchor="end" font-size="16.2">$20 trillion</text><text x="98.11" y="365.6" fill="#666" dominant-baseline="middle" text-anchor="end" font-size="16.2">$40 trillion</text><text x="98.11" y="280.7" fill="#666" dominant-baseline="middle" text-anchor="end" font-size="16.2">$60 trillion</text><text x="98.11" y="195.9" fill="#666" dominant-baseline="middle" text-anchor="end" font-size="16.2">$80 trillion</text><text x="98.11" y="111" fill="#666" dominant-baseline="middle" text-anchor="end" font-size="16.2">$100 trillion</text><text x="15" y="68.6" style="font-size:12px;text-transform:uppercase;cursor:pointer" class="clickable"><tspan style="font-family:FontAwesome"></tspan> linear</text></g><g class="AxisGridLines"><line x1="103.11" y1="535.3" x2="815.00" y2="535.3" stroke="#ccc"></line><line x1="103.11" y1="450.4" x2="815.00" y2="450.4" stroke="#ddd" stroke-dasharray="3,2"></line><line x1="103.11" y1="365.6" x2="815.00" y2="365.6" stroke="#ddd" stroke-dasharray="3,2"></line><line x1="103.11" y1="280.7" x2="815.00" y2="280.7" stroke="#ddd" stroke-dasharray="3,2"></line><line x1="103.11" y1="195.9" x2="815.00" y2="195.9" stroke="#ddd" stroke-dasharray="3,2"></line><line x1="103.11" y1="111" x2="815.00" y2="111" stroke="#ddd" stroke-dasharray="3,2"></line></g></g><g clip-path="url(#boundsClip-2)"><g class="Lines"><rect x="103" y="77" width="712" height="459" fill="rgba(255,255,255,0)" opacity="0"></rect><g class="key-World_0"><path stroke="#3360a9" stroke-linecap="round" d="M103 535L456 534L633 534L668 533L704 533L746 530L764 527L774 521L779 515L789 502L792 496L792 494L793 492L793 490L793 488L794 485L794 483L795 481L795 479L795 476L796 473L796 471L796 468L797 465L797 460L797 456L798 452L798 449L798 444L799 439L799 434L799 430L800 425L800 418L801 415L801 413L801 407L802 402L802 396L802 391L803 388L803 385L803 383L804 379L804 372L804 366L805 360L805 354L806 346L806 340L806 336L807 333L807 330L807 326L808 319L808 312L808 304L809 294L809 289L809 280L810 268L810 261L810 254L811 243L811 227L812 213L812 195L812 177L813 166L813 167L813 148L814 132L814 119L814 106L815 91L815 77" fill="none" stroke-width="1.5"></path><g fill="#3360a9"><circle cx="103" cy="535" r="2"></circle><circle cx="456" cy="534" r="2"></circle><circle cx="633" cy="534" r="2"></circle><circle cx="668" cy="533" r="2"></circle><circle cx="704" cy="533" r="2"></circle><circle cx="746" cy="530" r="2"></circle><circle cx="764" cy="527" r="2"></circle><circle cx="774" cy="521" r="2"></circle><circle cx="779" cy="515" r="2"></circle><circle cx="789" cy="502" r="2"></circle><circle cx="792" cy="496" r="2"></circle><circle cx="792" cy="494" r="2"></circle><circle cx="793" cy="492" r="2"></circle><circle cx="793" cy="490" r="2"></circle><circle cx="793" cy="488" r="2"></circle><circle cx="794" cy="485" r="2"></circle><circle cx="794" cy="483" r="2"></circle><circle cx="795" cy="481" r="2"></circle><circle cx="795" cy="479" r="2"></circle><circle cx="795" cy="476" r="2"></circle><circle cx="796" cy="473" r="2"></circle><circle cx="796" cy="471" r="2"></circle><circle cx="796" cy="468" r="2"></circle><circle cx="797" cy="465" r="2"></circle><circle cx="797" cy="460" r="2"></circle><circle cx="797" cy="456" r="2"></circle><circle cx="798" cy="452" r="2"></circle><circle cx="798" cy="449" r="2"></circle><circle cx="798" cy="444" r="2"></circle><circle cx="799" cy="439" r="2"></circle><circle cx="799" cy="434" r="2"></circle><circle cx="799" cy="430" r="2"></circle><circle cx="800" cy="425" r="2"></circle><circle cx="800" cy="418" r="2"></circle><circle cx="801" cy="415" r="2"></circle><circle cx="801" cy="413" r="2"></circle><circle cx="801" cy="407" r="2"></circle><circle cx="802" cy="402" r="2"></circle><circle cx="802" cy="396" r="2"></circle><circle cx="802" cy="391" r="2"></circle><circle cx="803" cy="388" r="2"></circle><circle cx="803" cy="385" r="2"></circle><circle cx="803" cy="383" r="2"></circle><circle cx="804" cy="379" r="2"></circle><circle cx="804" cy="372" r="2"></circle><circle cx="804" cy="366" r="2"></circle><circle cx="805" cy="360" r="2"></circle><circle cx="805" cy="354" r="2"></circle><circle cx="806" cy="346" r="2"></circle><circle cx="806" cy="340" r="2"></circle><circle cx="806" cy="336" r="2"></circle><circle cx="807" cy="333" r="2"></circle><circle cx="807" cy="330" r="2"></circle><circle cx="807" cy="326" r="2"></circle><circle cx="808" cy="319" r="2"></circle><circle cx="808" cy="312" r="2"></circle><circle cx="808" cy="304" r="2"></circle><circle cx="809" cy="294" r="2"></circle><circle cx="809" cy="289" r="2"></circle><circle cx="809" cy="280" r="2"></circle><circle cx="810" cy="268" r="2"></circle><circle cx="810" cy="261" r="2"></circle><circle cx="810" cy="254" r="2"></circle><circle cx="811" cy="243" r="2"></circle><circle cx="811" cy="227" r="2"></circle><circle cx="812" cy="213" r="2"></circle><circle cx="812" cy="195" r="2"></circle><circle cx="812" cy="177" r="2"></circle><circle cx="813" cy="166" r="2"></circle><circle cx="813" cy="167" r="2"></circle><circle cx="813" cy="148" r="2"></circle><circle cx="814" cy="132" r="2"></circle><circle cx="814" cy="119" r="2"></circle><circle cx="814" cy="106" r="2"></circle><circle cx="815" cy="91" r="2"></circle><circle cx="815" cy="77" r="2"></circle></g></g></g></g></g><g class="SourcesFooter" style="fill:#777"><g class="clickable" style="fill:#777"><text font-size="12.60" x="15.0" y="581.6"><tspan x="15" y="581.58">Source: World GDP - Our World In Data based on World Bank &amp; Maddison (2017)</tspan></text></g><text font-size="12.60" x="549.4" y="581.6"><tspan x="549.358" y="581.58"><a target='_blank' style='fill: #777;' href='https://ourworldindata.org/economic-growth'>OurWorldInData.org/economic-growth</a> • <a style="fill: #777;" class="cclogo" href="http://creativecommons.org/licenses/by-sa/4.0/deed.en_US" target="_blank">CC BY-SA</a></tspan></text></g></g></svg>